<mxfile host="app.diagrams.net" modified="2024-04-13T21:10:09.870Z" agent="Mozilla/5.0 (Windows NT 10.0; Win64; x64) AppleWebKit/537.36 (KHTML, like Gecko) Chrome/122.0.0.0 Safari/537.36" etag="4XurIdbKhQI-9s7WbEzT" version="24.2.5" type="device">
  <diagram name="Strona-1" id="mOGhw_kaDy-jFeSj4dUU">
    <mxGraphModel dx="1016" dy="521" grid="1" gridSize="10" guides="1" tooltips="1" connect="1" arrows="1" fold="1" page="1" pageScale="1" pageWidth="827" pageHeight="1169" background="#ffffff" math="0" shadow="0">
      <root>
        <mxCell id="0" />
        <mxCell id="1" parent="0" />
        <mxCell id="FnCTYT4J3TpVENLpEvIC-10" value="creates" style="edgeStyle=orthogonalEdgeStyle;rounded=0;orthogonalLoop=1;jettySize=auto;html=1;entryX=0.5;entryY=0;entryDx=0;entryDy=0;" parent="1" source="FnCTYT4J3TpVENLpEvIC-2" target="FnCTYT4J3TpVENLpEvIC-5" edge="1">
          <mxGeometry x="-0.3846" y="-10" relative="1" as="geometry">
            <mxPoint x="160" y="340" as="targetPoint" />
            <mxPoint as="offset" />
          </mxGeometry>
        </mxCell>
        <mxCell id="FnCTYT4J3TpVENLpEvIC-11" value="creates" style="edgeStyle=orthogonalEdgeStyle;rounded=0;orthogonalLoop=1;jettySize=auto;html=1;entryX=0.5;entryY=0;entryDx=0;entryDy=0;" parent="1" source="FnCTYT4J3TpVENLpEvIC-2" target="FnCTYT4J3TpVENLpEvIC-4" edge="1">
          <mxGeometry x="-0.3559" y="10" relative="1" as="geometry">
            <mxPoint as="offset" />
          </mxGeometry>
        </mxCell>
        <mxCell id="FnCTYT4J3TpVENLpEvIC-2" value="script.js" style="rounded=0;whiteSpace=wrap;html=1;" parent="1" vertex="1">
          <mxGeometry x="354" y="180" width="120" height="60" as="geometry" />
        </mxCell>
        <mxCell id="7QKjd7iXQyomto01nlFi-2" value="creates" style="edgeStyle=orthogonalEdgeStyle;rounded=0;orthogonalLoop=1;jettySize=auto;html=1;exitX=0.5;exitY=1;exitDx=0;exitDy=0;entryX=0.5;entryY=0;entryDx=0;entryDy=0;" edge="1" parent="1" source="FnCTYT4J3TpVENLpEvIC-4" target="7QKjd7iXQyomto01nlFi-1">
          <mxGeometry relative="1" as="geometry" />
        </mxCell>
        <mxCell id="7QKjd7iXQyomto01nlFi-4" value="uses" style="edgeStyle=orthogonalEdgeStyle;rounded=0;orthogonalLoop=1;jettySize=auto;html=1;exitX=0;exitY=0.5;exitDx=0;exitDy=0;entryX=1;entryY=0.5;entryDx=0;entryDy=0;dashed=1;dashPattern=1 4;" edge="1" parent="1" source="FnCTYT4J3TpVENLpEvIC-4" target="FnCTYT4J3TpVENLpEvIC-5">
          <mxGeometry x="-0.0323" relative="1" as="geometry">
            <mxPoint as="offset" />
          </mxGeometry>
        </mxCell>
        <mxCell id="FnCTYT4J3TpVENLpEvIC-4" value="SolutionPreview" style="rounded=0;whiteSpace=wrap;html=1;" parent="1" vertex="1">
          <mxGeometry x="570" y="290" width="120" height="60" as="geometry" />
        </mxCell>
        <mxCell id="FnCTYT4J3TpVENLpEvIC-5" value="ChallengesData" style="rounded=0;whiteSpace=wrap;html=1;" parent="1" vertex="1">
          <mxGeometry x="140" y="290" width="120" height="60" as="geometry" />
        </mxCell>
        <UserObject label="Created with: app.diagrams.net" link="app.diagrams.net" id="FnCTYT4J3TpVENLpEvIC-16">
          <mxCell style="text;html=1;strokeColor=none;fillColor=none;align=center;verticalAlign=middle;whiteSpace=wrap;rounded=0;fontStyle=1" parent="1" vertex="1">
            <mxGeometry x="637" width="190" height="30" as="geometry" />
          </mxCell>
        </UserObject>
        <mxCell id="FnCTYT4J3TpVENLpEvIC-33" value="CSSBattle Solutions - program diagram" style="text;html=1;strokeColor=none;fillColor=none;align=center;verticalAlign=middle;whiteSpace=wrap;rounded=0;fontSize=32;fontStyle=1" parent="1" vertex="1">
          <mxGeometry x="84" y="70" width="660" height="50" as="geometry" />
        </mxCell>
        <mxCell id="FnCTYT4J3TpVENLpEvIC-39" value="&amp;nbsp;" style="text;html=1;strokeColor=none;fillColor=none;align=center;verticalAlign=middle;whiteSpace=wrap;rounded=0;" parent="1" vertex="1">
          <mxGeometry width="60" height="30" as="geometry" />
        </mxCell>
        <mxCell id="FnCTYT4J3TpVENLpEvIC-40" value="&amp;nbsp;" style="text;html=1;strokeColor=none;fillColor=none;align=center;verticalAlign=middle;whiteSpace=wrap;rounded=0;" parent="1" vertex="1">
          <mxGeometry y="490" width="60" height="30" as="geometry" />
        </mxCell>
        <mxCell id="7QKjd7iXQyomto01nlFi-5" value="uses" style="edgeStyle=orthogonalEdgeStyle;rounded=0;orthogonalLoop=1;jettySize=auto;html=1;exitX=0;exitY=0.5;exitDx=0;exitDy=0;entryX=0.5;entryY=1;entryDx=0;entryDy=0;dashed=1;dashPattern=1 4;" edge="1" parent="1" source="7QKjd7iXQyomto01nlFi-1" target="FnCTYT4J3TpVENLpEvIC-5">
          <mxGeometry x="-0.3617" relative="1" as="geometry">
            <mxPoint as="offset" />
          </mxGeometry>
        </mxCell>
        <mxCell id="7QKjd7iXQyomto01nlFi-1" value="ChallengesList" style="rounded=0;whiteSpace=wrap;html=1;" vertex="1" parent="1">
          <mxGeometry x="570" y="420" width="120" height="60" as="geometry" />
        </mxCell>
      </root>
    </mxGraphModel>
  </diagram>
</mxfile>
